/* XPM */
static const char *icon_xpm[] = {
/* width height num_colors chars_per_pixel */
"   128   128        8            1",
/* colors */
"` c #040406",
". c #3e96b9",
"# c #8c9999",
"a c #5bc1c7",
"b c #51a2b5",
"c c #0a4e5a",
"d c #98d5d7",
"e c #cde5e4",
/* pixels */
"````````````````````````````````````````````````````````````````````````````````````````````````````````````````````````````````",
"````````````````````````````````````````````````````````````````````````````````````````````````````````````````````````````````",
"````````````````````````````````````````````````````````````````````````````````````````````````````````````````````````````````",
"````````````````````````````````````````````````````````````````````````````````````````````````````````````````````````````````",
"````````````````````````````````````````````````````````````````````````````````````````````````````````````````````````````````",
"````````````````````````````````````````````````````````````````````````````````````````````````````````````````````````````````",
"````````````````````````````````````````````````````````````````````````````````````````````````````````````````````````````````",
"````````````````````````````````````````````````````````````````````````````````````````````````````````````````````````````````",
"````````````````````````````````````````````````````````````````````````````````````````````````````````````````````````````````",
"````````````````````````````````````````````````````````````````````````````````````````````````````````````````````````````````",
"````````````````````````````````````````````````````````````````````````````````````````````````````````````````````````````````",
"````````````````````````````````````````````````````````````````````````````````````````````````````````````````````````````````",
"````````````````````````````````````````````````````````cccc....b..cccccc```````````````````````````````````````````````````````",
"```````````````````````````````````````````````````c.babbababb.....bbb.#.b.cc```````````````````````````````````````````````````",
"```````````````````````````````````````````````cc.babbabababbb..bb..b....bbbab.c````````````````````````````````````````````````",
"`````````````````````````````````````````````.b#abaabababaaab.bbbbbb..b.bbbbbbbbabcc````````````````````````````````````````````",
"```````````````````````````````````````````.aab.bbbaabaababbbb.............bbabbbbabcc``````````````````````````````````````````",
"`````````````````````````````````````````baab...bababab.bbbb...................bbb.bbbcc````````````````````````````````````````",
"``````````````````````````````````````c.aab..bbabbb.bb.bb.bbbbbbbbbb....b........bbbbbbb.```````````````````````````````````````",
"`````````````````````````````````````.aab...bbbbb.bbbabbbbbbbbbbbbbbbbbbbbbb......b.bbbb.b.c````````````````````````````````````",
"```````````````````````````````````ca#b...bbb.bbaabaabaaaaaaaaaaaaaaaababab.bbbbbbbb.b.b....c```````````````````````````````````",
"``````````````````````````````````.abb..bb...baabaaaaaaaaaaaaaabbaaaaaaaaababbbbbabbb.bb......c`````````````````````````````````",
"````````````````````````````````caa...bb....bbaaaaaaaaab................aabaaaaaaaaabbb.b......`````````````````````````````````",
"```````````````````````````````cda...bb...bbbaaaaaaab.......................baaaaaaaaabbb......b.```````````````````````````````",
"`````````````````````````````c#dabb.b...bbbaaababb...........................baaadaadaab.bbb....bbc`````````````````````````````",
"`````````````````````````````bdbbbbbb.babaaaaab................c.............bbaaaaaaaaaba.b..bb.b.c````````````````````````````",
"```````````````````````````c#dabaabbbaaaabab............c.ccccccccccccc..c..aab.bbbbadadaabbbb..bbb.c```````````````````````````",
"``````````````````````````c#dabbabbaaaaaabb..........ccccccccccccccccccccc...baaa....baaadaabb.b.b.b#c``````````````````````````",
"``````````````````````````aaabbabaaadaaab........ccccccccccccccccccccccccccccc.ba......aaaadabbb..b...c`````````````````````````",
"`````````````````````````dadaaabbaadadab..c....ccccccccccccccccccccccccccccccccc........bdaaaaabb.b.b..c````````````````````````",
"```````````````````````caaaa#abadaadaab......cccccccccccccccccccccccccccccccccccccc.......adaaaabb......````````````````````````",
"```````````````````````.ad#aabadadddab......cccccccccccccccccccccccccccccccccccccccc........aaaaaab..b.bbc``````````````````````",
"``````````````````````.abbabaaaaddada.....cccccccccccccccccccccccccccccccccccccccccccc.......aaaaaab.....c``````````````````````",
"`````````````````````cbaababaaaddddab....cccccccccccccccccccccccccccccccccccccccccccccc.......aaaaaab..bbbc`````````````````````",
"`````````````````````aaabbaaaaaadadaa..cccccccccccccccccccccccccccccccccccccccccccccccccc......aaaaabb...bbc````````````````````",
"````````````````````.aaabaaaaaadadda..cccccccccccccccccc`c````````````c`cccccccccccccccccc......aaaaaab.....````````````````````",
"```````````````````caabaaaaaaaaaadda.ccccccccccccccc`c````````````````````c`ccccccccccccccc.....aaaaaabb.b.bc```````````````````",
"```````````````````adbbbaaaaaaabdedaccccccccccccc````````````````````````````ccccccccccccccc.....aaaaaabbb.bbc``````````````````",
"``````````````````.ababaaaaaaabaddd.ccccccccccc`````````````````````````````````ccccccccccccc...baaaaaaabbb.b.``````````````````",
"`````````````````c#dbaaaaaaaaabaed.cccccccccc`````````````````````````````````````cccccccccccc..aaaaaaaabb.bbbc`````````````````",
"`````````````````.aaaaaaaaaaa.aadacccccccccc````````````````````````````````````````ccccccccccc.abbaaaaaaabbbbb`````````````````",
"````````````````cbaaaaaaaaaabadaaccccccccc````````````````````````````````````````````ccccccccc.aab.aaaaaaabbbbc````````````````",
"````````````````.baaaaddaaaa.aadccccccccc`````````````````````````````````````````````ccccccccccaa...aaaaaaabbbb````````````````",
"````````````````aaabaaadadabaad.ccccccc`````````````````````````````````````````````````cccccccc.b...aaaaaaabbbbc```````````````",
"```````````````.abaaaaaadaabaa.ccccccc````````````````````````````````````````````````````ccccccc.....aaaaaaaaaa#```````````````",
"```````````````baaaaaaaadabbaaccccccc`````````````````````````````````````````````````````cccccccc....aaaaaaaaad#c``````````````",
"``````````````.baaaaaaaadb.a.bcccccc```````````````````````````````````````````````````````cccccccc....aaaaaaaddd#``````````````",
"``````````````baaaaaaaaaab...cccccc`````````````````````````````````````````````````````````ccccccc..b.aaaaaaddd#d``````````````",
"``````````````aaaaaaaaaaa....ccccc````````````````````````````````````````````````````````````ccccc...b.aaadaaddedc`````````````",
"`````````````caaaaaaaaaa....ccccc````````````````````````````````````````````````````````````ccccccc.bbbaaaadaaddd#`````````````",
"`````````````.aaaaaaaaaa....ccccc``````````````````````````````````````````````````````````````ccccc..b.badaaaadddd`````````````",
"`````````````abaaaaaaaa....ccccc```````````````````````````````````````````````````````````````cccccc.b.baaaaaaaddec````````````",
"````````````caaaaabaaaa....cccc`````````````````````````````````````````````````````````````````ccccc.....aaaaaad#a#````````````",
"````````````caaaabaaaab....cccc``````````````````````````````````````````````````````````````````cccc....baaaaaaaad#````````````",
"````````````baaaaaaaaa.....ccc````````````````````````````````````````````````````````````````````cccc...baaaaaaada#````````````",
"````````````.aaaa.aaaa....cccc````````````````````````````````````````````````````````````````````cccc....aaaaaaaaadc```````````",
"````````````aaaaaaaabb..b.ccc`````````````````````````````````````````````````````````````````````cccc.....aaaaaaaaac```````````",
"```````````caaaabaaaab....ccc``````````````````````````````````````````````````````````````````````cccc...baaaaaaaaac```````````",
"```````````caaaaaaabab.bbccc```````````````````````````````````````````````````````````````````````cccc....aaaaaaaaa.```````````",
"```````````caaaa.aaaab..accc````````````````````````````````````````````````````````````````````````cccb...aaaaaaaaa.```````````",
"```````````.adaaaaaabb.b..cc````````````````````````````````````````````````````````````````````````ccc....aaaaabaab.```````````",
"```````````cdaaa.abaab.b.cc``````````````````````````````````````````````````````````````````````````cc....aaaaa.aab.```````````",
"```````````aaaaabaaaa..a.cc`````````````````````````````````````````````````````````````````````````ccc....aaaaab.a..```````````",
"```````````bdaaabaaaa....cc``````````````````````````````````````````````````````````````````````````cc....baaaabba..```````````",
"```````````dddaaaaaabbba.cc``````````````````````````````````````````````````````````````````````````cc....aaaaabba..c``````````",
"```````````deedaaaaaa..b.c````````````````````````````````````````````````````````````````````````````c....baaaab.a..c``````````",
"```````````ddeeedaababba.c```````````````````````````````````````````````````````````````````````````cc....baaaaaba..c``````````",
"```````````ddeeeeddaa..b.c````````````````````````````````````````````````````````````````````````````c....aaaaa.ba..c``````````",
"``````````c.eeedeeedaba.ac``````c`cc`c`c````````````````````````````````````````````````c`c`cc`c``````c.....aaaaa.a..```````````",
"``````````c.eededeeee.b.bc````c.bdadba#c````````````````````````````````````````````````c..bbbabbc````c....aaaaba.ab.c``````````",
"```````````beeededeeeaba..````c.#.adb#ac````````````````````````````````````````````````cc.bbbba.c````c....aaaaababa.c``````````",
"``````````cbeeedeeeeea.b..````c..#.#..#c````````````````````````````````````````````````cc.bbabb.c````c....aaaaba.a..```````````",
"```````````.deeeeeeeed.bac````cb......#.````````````````````````````````````````````````.c.#bbb#.c````c....aaaaa.aba.```````````",
"``````````cceeeeeeeee#b.a.````cb.....c#.````````````````````````````````````````````````c..a#ab..c````.....aaaaaba.b.c``````````",
"``````````cceeeeeeeeee.ba.c```cbb......#c``````````````````````````````````````````````ccc#aa#b.cc````.....aaaababa.cc``````````",
"```````````cdeeeeeeeeea.a.c````bb....c.#c``````````````````````````````````````````````c.cdadd...````c....aaaaaaba.ac```````````",
"``````````cc#eeeeeeeedaba..```cbdb.....bc``````````````````````````````````````````````...dded..cc```c...badadababa.c```````````",
"```````````c.ededdddedd.a..``cc.aa.....bbc`````````````````````````````````````````````..bdedb...c```baabddaaaa.abb.c```````````",
"``````````ccceedaaaaddd.bbbc`c`.aab......c````````````````````````````````````````````c..deeea..ccc``dadadaaaaa.abacc```````````",
"```````````ccbeeaaaababaabb.`cccbaabb....bc```````````````````````````````````````````c.#eeea...cc``cdaaaddaaaa.abacc```````````",
"```````````ccbaaaaaaaaaa.babc`ccba.b......c``````````````````````````````````````````c##eeeea...cc`c.bbbaaaaaabba..cc```````````",
"```````````cccdadaaaaaaaaaab.`cccaab.b.....`````````````````````````````````````````c#bdeeed...ccc`c....aadaaaa.abccc```````````",
"```````````cccaddaaaaaaaaaab.ccccbabbb......````````````````````````````````````````d#aaeeea...ccc`cb..bddaaaaabbaccc```````````",
"```````````cccbadaaaaaaaaaaa..ccc.aaaa.b.....``````````````````````````````````````#ad#deed...ccccc....adddaaaaab.ccc```````````",
"```````````ccccaddaaaaadaaa...ccccaaaaa.....#c````````````````````````````````````.d#bdddda...cccc.bb.bdededaaaabccc````````````",
"````````````ccc.adaaaaaaaaa.bb.ccc.aaaaaa..ca#.``````````````````````````````````#ddaddddd...cccc.d...bededdaaaaaccc````````````",
"````````````ccccaddaaaaaaaaabbb.cccaaaaaab...c#.````````````````````````````````.dddddddd....ccccd.b.bededdaaaaa.ccc````````````",
"````````````ccccaadaaaaaaaaaabbbccccaaaaaab..c.#c``````````````````````````````#dddddddda...ccccd.bbbdedeeaaaaabcccc````````````",
"````````````cccccdaaaabaaadaa.ba.ccc.aaaaaabb.....```````````````````````````c.a#dddedda...cccc#aabbddeeedababa.ccc`````````````",
"`````````````ccccbadaaaaadaaa..ab.ccc.aaaadabb.....c````````````````````````c#.#adeeeea....ccc.eddddeeeedabaaaacccc`````````````",
"`````````````cccc.aaaaaaaaaaaa.babccccabaaada........c````````````````````c.#.#adeeeea....cccceeeddeeeeaaaabaa.ccc``````````````",
"`````````````cccccbddaaaaaaaaaa.aaaccccaadaadabb.......cc``````````````cc....#adeeeea....ccc.eeeeddeeeddababaaccccc`````````````",
"``````````````cccccaadaaaaaaaaa..aaaccccdadaaaa.bb........cc`c``c``ccc.......#eeeed......ccceeeeedeeeeddaab...cccc``````````````",
"``````````````ccccc.aadaaaaaaaaa..baaccccdadadabbbbb......................##deeeeab....cccceeeeedeeeeedaaaaa.cccc```````````````",
"```````````````cccccaaadaaaaaaaba.baaaccc.adaaaabbbbbbbb.bb..c.c.........#deeeeeb.....cccceeeeedeeeeedaaaaabccccc```````````````",
"```````````````ccccccaadaaaaaaaaba.baaa.cccbaaabba.bbbbbbbbbbbba.....#bbddeeeeab..b..ccc.eeeeedeeeeedaadaaa.cccc````````````````",
"```````````````cccccc.aadaaaaabaababaaaa.ccc.aaaabaa.bbabbbaadada#a#aaddeeeda..baba.cccbdeeeedeeeeedaaaaaa.ccccc````````````````",
"````````````````ccccccaadaaaaaaaaabaaaaaaacccca.aaba.bbb.bbbbba#aaaaadddbab.bbbbbaccc.ddeeededddddddaaaaaaccccc`````````````````",
"`````````````````ccccccaadaabababaaaaaaaaaa.ccc.baaaaabbbbbbbbbabbbabbbbbbaadadaacccbddeddddeddddaaaaaaaa.ccccc`````````````````",
"`````````````````cccccccaadaa.aaaaaaaaab.aaaa.cccc.a.aaababaababababaaadddddadaccc.adedddddeedddaaaaaaaa.cccccc`````````````````",
"`````````````````ccccccc.aaaaa.aaaaaabaaaaaaaaa.cccc..aaabaabaaaaaaaadaaaaad.ccc.bdddeddddededdaaaaaaaabcccccc``````````````````",
"``````````````````ccccccccaadaa.abaaaaaaaaaaaaaaa.ccccc..aabaabaaaaaaadab.cccc.baaadddddddededaaaaaaaabcccccc```````````````````",
"```````````````````ccccccccaaadbabaaaaaaaaaaaaaaaaaa..ccccc...........ccccc.baabaadddddddededaaaaaaaa.ccccccc```````````````````",
"````````````````````ccccccccdaaaababaaaaaaaaaa.aaaaaaaa...ccccccccccccc.baaaababaadaddddddddaaaaaaaabccccccc````````````````````",
"````````````````````cccccccccaaaaaaabaaaaaaaaaaaaaaaaaaaaabbb......babaaaaaaaabaadadadaaadaaaaaaaaaaccccccc`````````````````````",
"`````````````````````cccccccccaaadaaba.abaaaaaaaaaaaaaaaaaaababbababababbababaaadaaadaddaaaaaaaaaaacccccccc`````````````````````",
"``````````````````````cccccccc.aaaadaabaaababaaaaaaaaaa.....a.ababa..b.bb.aaaaaaaadaadaaaaaaaaada.cccccccc``````````````````````",
"``````````````````````cccccccccc.aaaaaababaaabaaaaaaaaaaaaabbbbbb.babaaaaaaaaaaaadaadaaaaaaaaadaccccccccc```````````````````````",
"```````````````````````cccccccccccaaaaaaba.abaaaaaaaaaaaaaaaaaaaaaaaaaaadaaaaaadadaaaaaaadaddd.ccccccccc````````````````````````",
"`````````````````````````ccccccccccbaaaaaaabaabaaaaaaaaaababaaaaaaaaaaddddaaaaaaaaaaaaaaaadaacccccccccc`````````````````````````",
"`````````````````````````ccccccccccccaaaaadaababaabaaaabaaaabaaabaaaaaadddaaaaaaaaaaaaaadaaacccccccccc``````````````````````````",
"``````````````````````````ccccccccccccbaaabadaaabaababaaabaaaabaaaaaaaddddaaaaaaaaaaaaadaaccccccccccc```````````````````````````",
"```````````````````````````ccccccccccccc.aaaaadddaaaaabababababababbaaddddaaaaaaaaaaaaabcccccccccccc````````````````````````````",
"`````````````````````````````ccccccccccccc.bbabaaadadaaaabababaa.baaaaadedadaaaaaaaaabccccccccccccc`c```````````````````````````",
"`````````````````````````````ccccccccccccccc.babaaaaaaddddddadaaaaaadddedddaaaaaaaa.cccccccccccccc``````````````````````````````",
"``````````````````````````````ccccccccccccccccc.bbaaaaaabaaaaaadaaaaadddddddadaa.cccccccccccccccc```````````````````````````````",
"````````````````````````````````ccccccccccccccccccc.abaaabaaaaaaaaaabddddddbb.ccccccccccccccccc`````````````````````````````````",
"``````````````````````````````````ccccccccccccccccccccc..aba.a.a.ababaa#a.cccccccccccccccccccc``````````````````````````````````",
"```````````````````````````````````ccccccccccccccccccccccccccccccccccccccccccccccccccccccccc````````````````````````````````````",
"````````````````````````````````````ccccccccccccccccccccccccccccccccccccccccccccccccccccccc`````````````````````````````````````",
"``````````````````````````````````````ccccccccccccccccccccccccccccccccccccccccccccccccccc```````````````````````````````````````",
"`````````````````````````````````````````cccccccccccccccccccccccccccccccccccccccccccccc`````````````````````````````````````````",
"``````````````````````````````````````````ccccccccccccccccccccccccccccccccccccccccccc```````````````````````````````````````````",
"````````````````````````````````````````````ccccccccccccccccccccccccccccccccccccccc`````````````````````````````````````````````",
"```````````````````````````````````````````````c`cccccccccccccccccccccccccccccc`c```````````````````````````````````````````````",
"```````````````````````````````````````````````````ccccccccccccccccccccccccc````````````````````````````````````````````````````",
"```````````````````````````````````````````````````````c`c`cccccccccc`c`c```````````````````````````````````````````````````````",
"````````````````````````````````````````````````````````````````````````````````````````````````````````````````````````````````"
};
